<svg version="1.1" id="Layer_1" xmlns="http://www.w3.org/2000/svg" xmlns:xlink="http://www.w3.org/1999/xlink" x="0px" y="0px"
	 width="64px" height="64px" viewBox="0 0 500 500" enable-background="new 0 0 500 500" xml:space="preserve">
<g>
	<path fill-rule="evenodd" clip-rule="evenodd" d="M101.56,90.035c-17.06,0-33.545,0.068-50.029-0.026
		c-8.992-0.052-15.921-6.414-16.502-14.828c-0.617-8.931,6.136-16.94,15.188-17.038c21.828-0.235,43.661-0.212,65.489,0.016
		c8.118,0.084,13.716,5.798,15.277,14.503c1.966,10.966,3.897,21.938,5.927,33.378c2.16,0,4.111,0,6.062,0
		c98.653,0,197.308-0.004,295.962,0.005c13.067,0.001,22.356,6.26,25.227,17.625c0.948,3.752,1.143,8.035,0.397,11.822
		c-9.321,47.35-18.837,94.662-28.4,141.964c-2.711,13.406-11.693,20.571-25.458,20.574c-77.823,0.02-155.646,0.01-233.469,0.01
		c-1.978,0-3.954,0-6.428,0c1.885,10.762,3.685,21.035,5.605,32c2.109,0,4.215,0,6.32,0c77.657,0,155.313-0.002,232.97,0.008
		c1.997,0.001,4.031-0.102,5.983,0.229c8.029,1.361,13.812,8.802,13.263,16.867c-0.534,7.867-6.963,14.269-14.963,14.848
		c-1.492,0.107-2.998,0.047-4.498,0.047c-82.823,0.002-165.646,0.003-248.47,0.001c-13.171,0-18.051-3.874-20.357-16.853
		c-10.605-59.647-21.114-119.311-31.653-178.97C110.548,141.001,106.103,115.783,101.56,90.035z"/>
	<path fill-rule="evenodd" clip-rule="evenodd" d="M210.969,409.824c0.092,17.692-14.244,32.163-31.899,32.199
		c-17.668,0.037-32.084-14.362-32.066-32.029c0.018-17.468,14.218-31.802,31.646-31.943
		C196.362,377.906,210.877,392.176,210.969,409.824z"/>
	<path fill-rule="evenodd" clip-rule="evenodd" d="M434.969,410.046c-0.004,17.667-14.439,32.038-32.121,31.978
		c-17.639-0.06-31.955-14.559-31.845-32.25c0.108-17.434,14.417-31.676,31.868-31.723
		C420.567,378.003,434.973,392.363,434.969,410.046z"/>
</g>
</svg>